<svg xmlns="http://www.w3.org/2000/svg" viewBox="0 0 1672 941" role="img" aria-label="Maestro PCB v19 staged tooth-fabric reconstruction"><defs><pattern id="grid" width="18" height="18" patternUnits="userSpaceOnUse"><path d="M18 0H0V18" fill="none" stroke="#2a638d" stroke-opacity=".065" stroke-width=".4"/><circle cx="2" cy="2" r=".65" fill="#4aa5d7" fill-opacity=".10"/></pattern><filter id="routeGlow"><feGaussianBlur stdDeviation="1.35" result="b"/><feMerge><feMergeNode in="b"/><feMergeNode in="SourceGraphic"/></feMerge></filter><filter id="nodeGlow"><feGaussianBlur stdDeviation="2.2" result="b"/><feMerge><feMergeNode in="b"/><feMergeNode in="SourceGraphic"/></feMerge></filter><radialGradient id="halo"><stop stop-color="#0b6fa9" stop-opacity=".16"/><stop offset=".62" stop-color="#06233e" stop-opacity=".05"/><stop offset="1" stop-color="#020712" stop-opacity="0"/></radialGradient><style>.route{fill:none;stroke-linecap:round;stroke-linejoin:round;filter:url(#routeGlow)}.thick{stroke-width:1.15;opacity:.92}.thin{stroke-width:.68;opacity:.58}.cyan{stroke:#36bfff}.teal{stroke:#23d8c8}.lime{stroke:#a7d67b}.amber{stroke:#f5a623}.violet{stroke:#c16fff}.rail{fill:none;stroke-width:.7;opacity:.34}.node{filter:url(#nodeGlow)}</style></defs><rect width="1672" height="941" fill="url(#grid)"/><ellipse cx="836" cy="445" rx="610" ry="410" fill="url(#halo)"/><g id="module-rails"><path class="rail cyan" d="M70 82H330L350 100V230L330 248H70L54 232V98Z"/><path class="rail teal" d="M70 259H330L350 277V407L330 425H70L54 409V275Z"/><path class="rail lime" d="M70 438H330L350 456V586L330 604H70L54 588V454Z"/><path class="rail violet" d="M70 617H330L350 635V765L330 783H70L54 767V633Z"/><path class="rail amber" d="M1602 82H1342L1322 100V230L1342 248H1602L1618 232V98Z"/><path class="rail amber" d="M1602 259H1342L1322 277V407L1342 425H1602L1618 409V275Z"/><path class="rail teal" d="M1602 438H1342L1322 456V586L1342 604H1602L1618 588V454Z"/><path class="rail violet" d="M1602 617H1342L1322 635V765L1342 783H1602L1618 767V633Z"/></g><g id="pcb-routing" data-topology="staged-tooth-fabric" data-left-pin-x="624" data-right-pin-x="1048" data-top-pin-y="233" data-bottom-pin-y="653" data-route-weights="2" data-destination-minority="true"><path class="route thick cyan" data-route-group="L-cyan-thick-destination" data-kind="destination" data-weight="thick" data-destination="module" d="M624 282H575L555 282L520 241L475 201L430 160H396"/><path class="route thick cyan" data-route-group="L-cyan-thick-field" data-kind="field" data-weight="thick" data-destination="field" d="M624 270H575L555 270L535 240 M624 318H575L555 318L527 324 M624 330H575L550 330L520 322L482 315L422 300"/><path class="route thin cyan" data-route-group="L-cyan-thin-destination" data-kind="destination" data-weight="thin" data-destination="module" d="M624 342H575L555 342L520 288L475 234L430 180H396"/><path class="route thin cyan" data-route-group="L-cyan-thin-field" data-kind="field" data-weight="thin" data-destination="field" d="M624 294H575L550 294L520 291L482 288L422 282 M624 306H575L552 306L525 305L490 303 M624 450H575L552 450L525 444L490 432 M624 486H575L555 486L535 495 M624 306H575L548 306L522 314L510 328"/><path class="route thick teal" data-route-group="L-teal-thick-destination" data-kind="destination" data-weight="thick" data-destination="module" d="M624 378H575L555 378L520 359L475 341L430 322H396 M624 426H575L555 426L520 402L475 378L430 354H396"/><path class="route thick teal" data-route-group="L-teal-thick-field" data-kind="field" data-weight="thick" data-destination="field" d="M624 366H575L552 366L525 369L474 375 M624 414H575L550 414L520 414L482 414L438 414"/><path class="route thin teal" data-route-group="L-teal-thin-field" data-kind="field" data-weight="thin" data-destination="field" d="M624 354H575L555 354L527 354 M624 390H575L552 390L525 384L482 372 M624 402H575L555 402L519 393 M624 366H575L548 366L522 358L480 344"/><path class="route thick lime" data-route-group="L-lime-thick-destination" data-kind="destination" data-weight="thick" data-destination="module" d="M624 462H575L555 462L520 471L475 481L430 490H396 M624 510H575L555 510L520 515L475 521L430 526H396"/><path class="route thick lime" data-route-group="L-lime-thick-field" data-kind="field" data-weight="thick" data-destination="field" d="M624 474H575L552 474L525 474L474 474"/><path class="route thin lime" data-route-group="L-lime-thin-field" data-kind="field" data-weight="thin" data-destination="field" d="M624 438H575L555 438L519 456 M624 498H575L550 498L520 502L482 507L430 516 M624 438H575L548 438L522 430L480 416 M624 498H575L548 498L522 506L495 520"/><path class="route thick violet" data-route-group="L-violet-thick-field" data-kind="field" data-weight="thick" data-destination="field" d="M624 522H575L555 522L535 523 M624 558H575L552 558L525 567L490 586 M624 570H575L555 570L527 562"/><path class="route thin violet" data-route-group="L-violet-thin-destination" data-kind="destination" data-weight="thin" data-destination="module" d="M624 546H575L555 546L520 582L475 618L430 654H396 M624 594H575L555 594L520 627L475 661L430 694H396"/><path class="route thin violet" data-route-group="L-violet-thin-field" data-kind="field" data-weight="thin" data-destination="field" d="M624 534H575L552 534L525 537L482 544 M624 582H575L550 582L520 582L482 582L422 583 M624 570H575L548 570L522 578L495 592"/><path class="route thick amber" data-route-group="R-amber-thick-destination" data-kind="destination" data-weight="thick" data-destination="module" d="M1048 282H1097L1117 282L1152 241L1197 201L1242 160H1276 M1048 378H1097L1117 378L1152 359L1197 341L1242 322H1276 M1048 426H1097L1117 426L1152 402L1197 378L1242 354H1276"/><path class="route thick amber" data-route-group="R-amber-thick-field" data-kind="field" data-weight="thick" data-destination="field" d="M1048 270H1097L1122 270L1152 262L1190 255L1234 240 M1048 318H1097L1120 318L1147 320L1190 324 M1048 330H1097L1117 330L1153 300 M1048 366H1097L1120 366L1147 369L1198 375 M1048 414H1097L1117 414L1137 414"/><path class="route thin amber" data-route-group="R-amber-thin-destination" data-kind="destination" data-weight="thin" data-destination="module" d="M1048 342H1097L1117 342L1152 288L1197 234L1242 180H1276"/><path class="route thin amber" data-route-group="R-amber-thin-field" data-kind="field" data-weight="thin" data-destination="field" d="M1048 294H1097L1117 294L1153 282 M1048 306H1097L1122 306L1152 305L1190 304L1234 303 M1048 354H1097L1122 354L1152 354L1190 354L1242 354 M1048 390H1097L1122 390L1152 385L1190 381L1242 372 M1048 402H1097L1120 402L1147 399L1198 393 M1048 450H1097L1120 450L1147 444L1182 432 M1048 486H1097L1120 486L1147 489L1182 495 M1048 318H1097L1124 318L1150 326L1177 340 M1048 390H1097L1124 390L1150 398L1177 412 M1048 450H1097L1124 450L1150 442L1162 428"/><path class="route thick teal" data-route-group="R-teal-thick-destination" data-kind="destination" data-weight="thick" data-destination="module" d="M1048 462H1097L1117 462L1152 471L1197 481L1242 490H1276 M1048 510H1097L1117 510L1152 515L1197 521L1242 526H1276"/><path class="route thick teal" data-route-group="R-teal-thick-field" data-kind="field" data-weight="thick" data-destination="field" d="M1048 474H1097L1122 474L1152 474L1190 474L1250 474"/><path class="route thin teal" data-route-group="R-teal-thin-field" data-kind="field" data-weight="thin" data-destination="field" d="M1048 438H1097L1122 438L1152 442L1190 447L1250 456 M1048 498H1097L1117 498L1145 516"/><path class="route thick violet" data-route-group="R-violet-thick-field" data-kind="field" data-weight="thick" data-destination="field" d="M1048 522H1097L1122 522L1152 522L1190 522L1234 523 M1048 558H1097L1122 558L1152 565L1190 572L1234 586 M1048 570H1097L1120 570L1147 567L1190 562"/><path class="route thin violet" data-route-group="R-violet-thin-destination" data-kind="destination" data-weight="thin" data-destination="module" d="M1048 546H1097L1117 546L1152 582L1197 618L1242 654H1276 M1048 594H1097L1117 594L1152 627L1197 661L1242 694H1276"/><path class="route thin violet" data-route-group="R-violet-thin-field" data-kind="field" data-weight="thin" data-destination="field" d="M1048 534H1097L1120 534L1147 537L1190 544 M1048 582H1097L1117 582L1153 583 M1048 522H1097L1124 522L1150 514L1162 500 M1048 582H1097L1124 582L1150 590L1192 604"/><path class="route thick cyan" data-route-group="T-cyan-thick-field" data-kind="field" data-weight="thick" data-destination="field" d="M650 233V196L650 176L630 142 M663 233V196L663 172L658 136L653 100 M715 233V196L715 172L705 136L695 108 M728 233V196L728 172L723 136L718 40"/><path class="route thin cyan" data-route-group="T-cyan-thin-field" data-kind="field" data-weight="thin" data-destination="field" d="M676 233V196L676 172L676 136L676 56 M689 233V196L689 172L694 136L699 92 M702 233V196L702 176L722 150 M741 233V196L741 172L741 136L741 100 M754 233V196L754 176L764 158 M767 233V196L767 172L777 136L787 92"/><path class="route thick teal" data-route-group="T-teal-thick-field" data-kind="field" data-weight="thick" data-destination="field" d="M780 233V196L780 172L770 136L760 48 M793 233V196L793 172L788 136L783 108"/><path class="route thin teal" data-route-group="T-teal-thin-field" data-kind="field" data-weight="thin" data-destination="field" d="M806 233V196L806 176L806 142 M819 233V196L819 172L824 136L829 100 M832 233V196L832 172L842 136L852 56"/><path class="route thick amber" data-route-group="T-amber-thick-field" data-kind="field" data-weight="thick" data-destination="field" d="M845 233V196L845 172L835 136L825 92 M858 233V196L858 176L848 150 M910 233V196L910 176L890 158 M923 233V196L923 172L918 136L913 92 M975 233V196L975 172L965 136L955 100 M988 233V196L988 172L983 136L978 56"/><path class="route thin amber" data-route-group="T-amber-thin-field" data-kind="field" data-weight="thin" data-destination="field" d="M871 233V196L871 172L871 136L871 108 M884 233V196L884 172L889 136L894 40 M897 233V196L897 172L907 136L917 100 M936 233V196L936 172L936 136L936 48 M949 233V196L949 172L954 136L959 108 M962 233V196L962 176L982 142 M1001 233V196L1001 172L1001 136L1001 92 M1014 233V196L1014 176L1024 150 M1027 233V196L1027 172L1037 136L1047 108"/><path class="route thick cyan" data-route-group="B-cyan-thick-field" data-kind="field" data-weight="thick" data-destination="field" d="M650 653V690L614 744 M663 653V690L663 714L651 755L639 796 M715 653V690L739 732 M728 653V690L728 714L746 758L764 802"/><path class="route thin cyan" data-route-group="B-cyan-thin-field" data-kind="field" data-weight="thin" data-destination="field" d="M676 653V690L676 714L670 783L664 852 M689 653V690L689 714L689 758L689 802 M702 653V690L714 738 M741 653V690L741 714L723 786L705 858 M754 653V690L754 714L742 752L730 790 M767 653V690L755 744"/><path class="route thick teal" data-route-group="B-teal-thick-field" data-kind="field" data-weight="thick" data-destination="field" d="M780 653V690L780 738 M793 653V690L793 714L799 752L805 790"/><path class="route thin teal" data-route-group="B-teal-thin-destination" data-kind="destination" data-weight="thin" data-destination="module" d="M806 653V690L806 710L820 748 M819 653V690L819 710L830 750"/><path class="route thick amber" data-route-group="B-amber-thick-destination" data-kind="destination" data-weight="thick" data-destination="module" d="M858 653V690L858 710L842 750"/><path class="route thin amber" data-route-group="B-amber-thin-destination" data-kind="destination" data-weight="thin" data-destination="module" d="M871 653V690L871 710L852 748"/><path class="route thick amber" data-route-group="B-amber-thick-field" data-kind="field" data-weight="thick" data-destination="field" d="M845 653V690L821 744"/><path class="route thin amber" data-route-group="B-amber-thin-field" data-kind="field" data-weight="thin" data-destination="field" d="M832 653V690L796 732 M884 653V690L884 714L890 758L896 802 M897 653V690L921 738"/><path class="route thick violet" data-route-group="B-violet-thick-field" data-kind="field" data-weight="thick" data-destination="field" d="M910 653V690L946 732 M923 653V690L923 714L905 758L887 802 M975 653V690L987 738 M988 653V690L988 714L1000 752L1012 790"/><path class="route thin violet" data-route-group="B-violet-thin-field" data-kind="field" data-weight="thin" data-destination="field" d="M936 653V690L936 714L924 786L912 858 M949 653V690L949 714L943 752L937 790 M962 653V690L962 744 M1001 653V690L1001 714L1019 789L1037 864 M1014 653V690L1014 714L996 755L978 796 M1027 653V690L1003 732"/></g><g id="terminal-beacons" class="node"><circle cx="535" cy="240" r="2.6" fill="#36bfff"/><circle cx="422" cy="282" r="2.1" fill="#36bfff"/><circle cx="527" cy="324" r="2.6" fill="#36bfff"/><circle cx="422" cy="300" r="2.6" fill="#36bfff"/><circle cx="474" cy="375" r="2.6" fill="#23d8c8"/><circle cx="482" cy="372" r="2.1" fill="#23d8c8"/><circle cx="438" cy="414" r="2.6" fill="#23d8c8"/><circle cx="519" cy="456" r="2.1" fill="#a7d67b"/><circle cx="535" cy="495" r="2.1" fill="#36bfff"/><circle cx="430" cy="516" r="2.1" fill="#a7d67b"/><circle cx="482" cy="544" r="2.1" fill="#c16fff"/><circle cx="490" cy="586" r="2.6" fill="#c16fff"/><circle cx="422" cy="583" r="2.1" fill="#c16fff"/><circle cx="1234" cy="240" r="2.6" fill="#f5a623"/><circle cx="1153" cy="282" r="2.1" fill="#f5a623"/><circle cx="1234" cy="303" r="2.1" fill="#f5a623"/><circle cx="1190" cy="324" r="2.6" fill="#f5a623"/><circle cx="1242" cy="354" r="2.1" fill="#f5a623"/><circle cx="1198" cy="375" r="2.6" fill="#f5a623"/><circle cx="1242" cy="372" r="2.1" fill="#f5a623"/><circle cx="1137" cy="414" r="2.6" fill="#f5a623"/><circle cx="1250" cy="456" r="2.1" fill="#23d8c8"/><circle cx="1250" cy="474" r="2.6" fill="#23d8c8"/><circle cx="1182" cy="495" r="2.1" fill="#f5a623"/><circle cx="1234" cy="523" r="2.6" fill="#c16fff"/><circle cx="1190" cy="544" r="2.1" fill="#c16fff"/><circle cx="1234" cy="586" r="2.6" fill="#c16fff"/><circle cx="1153" cy="583" r="2.1" fill="#c16fff"/><circle cx="510" cy="328" r="2.1" fill="#36bfff"/><circle cx="480" cy="344" r="2.1" fill="#23d8c8"/><circle cx="480" cy="416" r="2.1" fill="#a7d67b"/><circle cx="495" cy="520" r="2.1" fill="#a7d67b"/><circle cx="495" cy="592" r="2.1" fill="#c16fff"/><circle cx="1177" cy="340" r="2.1" fill="#f5a623"/><circle cx="1177" cy="412" r="2.1" fill="#f5a623"/><circle cx="1162" cy="428" r="2.1" fill="#f5a623"/><circle cx="1162" cy="500" r="2.1" fill="#c16fff"/><circle cx="1192" cy="604" r="2.1" fill="#c16fff"/></g><g id="passive-vias" opacity=".48"><circle cx="110" cy="120" r="1.1" fill="#36bfff"/><circle cx="180" cy="205" r="1.1" fill="#23d8c8"/><circle cx="250" cy="350" r="1.1" fill="#36bfff"/><circle cx="318" cy="545" r="1.1" fill="#a7d67b"/><circle cx="370" cy="700" r="1.1" fill="#c16fff"/><circle cx="1560" cy="126" r="1.1" fill="#f5a623"/><circle cx="1500" cy="220" r="1.1" fill="#ffc65c"/><circle cx="1438" cy="358" r="1.1" fill="#f5a623"/><circle cx="1370" cy="548" r="1.1" fill="#23d8c8"/><circle cx="1310" cy="704" r="1.1" fill="#c16fff"/></g><!-- v19 metrics routes=126 destinations=20 destination_ratio=0.159 weights=2 --></svg>