<svg xmlns="http://www.w3.org/2000/svg" viewBox="0 0 1672 941" role="img" aria-label="Maestro authored PCB reference fabric v7 balanced">
<defs>
  <pattern id="grid" width="18" height="18" patternUnits="userSpaceOnUse"><path d="M18 0H0V18" fill="none" stroke="#2a638d" stroke-opacity=".10" stroke-width=".45"/><circle cx="2" cy="2" r=".75" fill="#4aa5d7" fill-opacity=".13"/></pattern>
  <pattern id="dotsC" width="16" height="16" patternUnits="userSpaceOnUse"><circle cx="2" cy="2" r="1.05" fill="#36bfff" fill-opacity=".46"/><circle cx="11" cy="8" r=".65" fill="#23d8c8" fill-opacity=".30"/></pattern>
  <pattern id="dotsA" width="17" height="16" patternUnits="userSpaceOnUse"><circle cx="3" cy="2" r="1.02" fill="#e59a20" fill-opacity=".44"/><circle cx="12" cy="10" r=".64" fill="#ffc65c" fill-opacity=".28"/></pattern>
  <pattern id="dotsV" width="20" height="18" patternUnits="userSpaceOnUse"><circle cx="4" cy="3" r=".9" fill="#c16fff" fill-opacity=".36"/><circle cx="14" cy="11" r=".6" fill="#36bfff" fill-opacity=".24"/></pattern>
  <filter id="glow"><feGaussianBlur stdDeviation="2.1" result="b"/><feMerge><feMergeNode in="b"/><feMergeNode in="SourceGraphic"/></feMerge></filter>
  <filter id="glowC"><feGaussianBlur stdDeviation="2.6" result="b"/><feMerge><feMergeNode in="b"/><feMergeNode in="SourceGraphic"/></feMerge></filter>
  <filter id="glowA"><feGaussianBlur stdDeviation="2.6" result="b"/><feMerge><feMergeNode in="b"/><feMergeNode in="SourceGraphic"/></feMerge></filter>
  <radialGradient id="halo" cx="50%" cy="47%" r="50%"><stop offset="0" stop-color="#0d74b2" stop-opacity=".20"/><stop offset=".5" stop-color="#07335d" stop-opacity=".08"/><stop offset="1" stop-color="#020712" stop-opacity="0"/></radialGradient>
</defs>
<rect width="1672" height="941" fill="url(#grid)" opacity=".94"/>
<ellipse cx="836" cy="452" rx="570" ry="412" fill="url(#halo)"/>
<rect x="20" y="58" width="575" height="720" fill="url(#dotsC)" opacity=".28"/>
<rect x="1078" y="54" width="575" height="724" fill="url(#dotsA)" opacity=".26"/>
<rect x="492" y="58" width="690" height="704" fill="url(#dotsC)" opacity=".11"/>
<rect x="350" y="590" width="972" height="278" fill="url(#dotsV)" opacity=".16"/>
<g fill="none" stroke-linecap="round" stroke-linejoin="round">
<!-- sculpted module frame rails -->
<g stroke-width="1">
<path d="M69 82H362l30 18h19l17 18v94l-18 18h-20l-28 18H69l-18-18V100z" stroke="#36bfff" stroke-opacity=".70"/><path d="M78 90H355l28 17h18l15 15v86l-15 15h-18l-27 17H78l-14-14V104z" stroke="#36bfff" stroke-opacity=".24"/>
<path d="M69 259H362l30 18h19l17 18v94l-18 18h-20l-28 18H69l-18-18V277z" stroke="#23d8c8" stroke-opacity=".64"/><path d="M78 267H355l28 17h18l15 15v86l-15 15h-18l-27 17H78l-14-14V281z" stroke="#23d8c8" stroke-opacity=".21"/>
<path d="M69 438H362l30 18h19l17 18v94l-18 18h-20l-28 18H69l-18-18V456z" stroke="#a7d67b" stroke-opacity=".56"/><path d="M78 446H355l28 17h18l15 15v86l-15 15h-18l-27 17H78l-14-14V460z" stroke="#a7d67b" stroke-opacity=".18"/>
<path d="M69 617H362l30 18h19l17 18v94l-18 18h-20l-28 18H69l-18-18V635z" stroke="#c16fff" stroke-opacity=".68"/><path d="M78 625H355l28 17h18l15 15v86l-15 15h-18l-27 17H78l-14-14V639z" stroke="#c16fff" stroke-opacity=".22"/>
<path d="M1603 82H1322l-24 13h-28l-21 23v93l14 20h29l30 17h281l18-18V100z" stroke="#e59a20" stroke-opacity=".72"/><path d="M1594 91h-267l-24 12h-26l-16 19v84l18 17h18l31 16h266l14-14V104z" stroke="#e59a20" stroke-opacity=".24"/>
<path d="M1603 259H1315l-34 14h-16l-22 25v87l21 21h23l28 19h288l18-18V277z" stroke="#e59a20" stroke-opacity=".66"/><path d="M1594 267h-270l-31 17h-15l-18 14v86l16 17h23l26 16h269l14-14V281z" stroke="#e59a20" stroke-opacity=".20"/>
<path d="M1603 438H1328l-20 12h-37l-27 22v93l17 23h27l35 16h280l18-18V456z" stroke="#23d8c8" stroke-opacity=".64"/><path d="M1594 446h-261l-23 13h-28l-19 16v86l14 18h26l31 17h260l14-14V460z" stroke="#23d8c8" stroke-opacity=".21"/>
<path d="M1603 617H1305l-25 17h-21l-16 19v94l18 18h21l31 18h290l18-18V635z" stroke="#c16fff" stroke-opacity=".70"/><path d="M1594 625h-276l-26 16h-20l-12 16v84l17 17h20l28 17h269l14-14V639z" stroke="#c16fff" stroke-opacity=".23"/>
</g>
<!-- balanced density envelope / visual breathing corridors -->
<!-- long ambient branches that intentionally do not terminate at cards -->
<g stroke="#36bfff" stroke-opacity=".19" stroke-width=".68">
<path d="M8 78h124l22 14h182l26-19h205l30 18h68"/><path d="M8 112h139l18 11h166l36-24h186l28 18h88"/><path d="M8 148h110l29 15h181l30-20h189l27 18h100"/><path d="M8 184h121l24 14h169l34-23h198l22 17h94"/><path d="M8 222h84l33 18h194l23-14h207l28 19h81"/><path d="M8 260h118l21 14h179l30-20h199l24 17h82"/><path d="M8 302h114l26 15h171l33-22h192l29 20h92"/><path d="M8 346h86l35 20h190l25-17h205l26 19h88"/><path d="M8 392h129l17 12h162l40-26h179l29 20h94"/><path d="M8 440h116l25 16h170l32-23h197l24 17h91"/><path d="M8 490h77l38 22h209l22-16h190l29 18h88"/><path d="M8 542h129l18 12h159l39-25h181l31 19h91"/><path d="M8 596h90l31 19h192l24-17h199l31 20h84"/>
</g>
<!-- asymmetric right-side ambient fabric: intentionally not mirrored -->
<g stroke="#e59a20" stroke-opacity=".20" stroke-width=".70">
<path d="M1664 82h-96l-31 16h-174l-18-12h-213l-22 26h-104"/><path d="M1664 126h-78l-37 22h-205l-25-17h-169l-39 24h-96"/><path d="M1664 174h-89l-33 18h-153l-28-13h-218l-20 23h-104"/><path d="M1664 224h-72l-41 25h-224l-17-14h-183l-34 18h-91"/><path d="M1664 276h-84l-35 20h-198l-22-16h-174l-36 23h-87"/><path d="M1664 330h-95l-29 17h-217l-24-14h-162l-42 26h-71"/><path d="M1664 386h-118l-23 14h-163l-41-27h-179l-31 21h-93"/><path d="M1664 444h-126l-18 11h-176l-35-22h-165l-44 28h-96"/><path d="M1664 504h-109l-25 15h-157l-43-25h-196l-21 18h-102"/><path d="M1664 566h-122l-19 12h-168l-38-24h-201l-20 17h-85"/>
</g>
<!-- central-origin surface merge network -->
<g stroke="#36bfff" stroke-opacity=".72" stroke-width="1.02" filter="url(#glowC)">
<path d="M642 286H612l-24-18h-48l-22 16h-46l-27-18h-41"/><path d="M642 312H604l-20-15h-51l-25 17h-53l-22-15h-37"/><path d="M642 340H615l-27 21h-55l-21-17h-49l-28 19h-43"/><path d="M642 370H600l-18 15h-58l-21-18h-50l-26 18h-34"/><path d="M642 400H607l-23-17h-51l-25 18h-52l-27-20h-37"/><path d="M642 432H611l-26 20h-54l-23-17h-57l-22 17h-37"/><path d="M642 466H599l-18 14h-57l-22-17h-49l-27 18h-34"/><path d="M642 502H604l-20-16h-50l-25 19h-54l-26-20h-37"/><path d="M642 540H598l-17 13h-58l-21-17h-49l-28 20h-33"/><path d="M642 580H611l-26 20h-54l-23-17h-57l-22 17h-37"/>
</g>
<!-- asymmetric right merge fabric -->
<g stroke="#e59a20" stroke-opacity=".76" stroke-width="1.02" filter="url(#glowA)">
<path d="M1030 282h26l33-22h44l19 13h56l24-20h48"/><path d="M1030 314h41l18-12h63l26 23h38l31-17h33"/><path d="M1030 348h29l25 18h49l34-14h53l18 25h42"/><path d="M1030 386h38l21-25h57l22 16h44l36-20h32"/><path d="M1030 426h24l30 15h61l19-23h47l27 19h42"/><path d="M1030 468h43l16-11h50l29 22h56l20-16h36"/><path d="M1030 512h31l24-18h58l33 26h39l26-17h39"/><path d="M1030 558h37l18 14h44l34-21h62l17 24h38"/>
</g>
<!-- organic micro-topology islands -->
<g stroke="#36bfff" stroke-opacity=".34" stroke-width=".78">
<path d="M420 122h34l18 9h42"/><path d="M430 170h48l22 13h45"/><path d="M418 224h39l17 10h55"/><path d="M432 278h34l25 8h44"/><path d="M420 334h47l18 12h52"/><path d="M434 392h42l25-12h48"/><path d="M420 452h35l20 9h56"/><path d="M432 514h48l22-13h50"/><path d="M420 576h40l26 8h52"/>
</g>
<g stroke="#e59a20" stroke-opacity=".35" stroke-width=".78">
<path d="M1260 126h-35l-20 10h-38"/><path d="M1244 186h-46l-22 12h-50"/><path d="M1256 246h-39l-25 10h-55"/><path d="M1240 310h-45l-18 13h-48"/><path d="M1254 376h-34l-28 11h-58"/><path d="M1238 444h-43l-20 14h-52"/><path d="M1252 514h-37l-26 10h-60"/><path d="M1236 584h-48l-18-12h-54"/>
</g>
<g stroke="#23d8c8" stroke-opacity=".42" stroke-width=".82"><path d="M430 348h68l18-10h54l20 8h48"/><path d="M1246 360h-58l-25 14h-52l-19-12h-58"/><path d="M430 494h68l18-10h54l20 8h48"/><path d="M1240 500h-63l-20 15h-49l-27-18h-47"/></g>
<g stroke="#c16fff" stroke-opacity=".44" stroke-width=".82"><path d="M430 642h68l18-10h54l20 8h48"/><path d="M1248 646h-62l-22 17h-51l-28-13h-51"/><path d="M430 678h68l18-10h54l20 8h48"/><path d="M1236 684h-54l-25-14h-42l-29 18h-52"/></g>
<!-- core rim integration: nested processor rails and pin landing geometry -->
<g filter="url(#glow)" stroke-width="1"><rect x="628" y="234" width="416" height="418" rx="30" stroke="#36bfff" stroke-opacity=".29"/><rect x="620" y="226" width="432" height="434" rx="36" stroke="#e59a20" stroke-opacity=".10" stroke-dasharray="2 13"/><path d="M642 260h-24l-12-10h-34" stroke="#36bfff"/><path d="M642 276h-30l-14-12h-42" stroke="#36bfff"/><path d="M642 606h-30l-15 14h-42" stroke="#36bfff"/><path d="M642 622h-36l-17 16h-50" stroke="#36bfff"/><path d="M1030 260h24l12-10h34" stroke="#e59a20"/><path d="M1030 276h30l14-12h42" stroke="#e59a20"/><path d="M1030 606h30l15 14h42" stroke="#e59a20"/><path d="M1030 622h36l17 16h50" stroke="#e59a20"/></g>
<!-- crown breakout with scattered hotspots; top rings deliberately removed -->
<g stroke-width="1.04" filter="url(#glow)"><path d="M646 248V210l-34-34V112l-26-26" stroke="#36bfff"/><path d="M670 248V190l-26-24V94l-18-18" stroke="#36bfff"/><path d="M696 248V174l-18-20V78" stroke="#36bfff"/><path d="M722 248V158l-12-15V70" stroke="#36bfff"/><path d="M748 248V142l-7-10V62" stroke="#36bfff"/><path d="M776 248V126l-3-6V58" stroke="#36bfff"/><path d="M804 248V108V54" stroke="#36bfff"/>
<path d="M866 248V112l10-13V64" stroke="#e59a20"/><path d="M894 248V132l17-19V76" stroke="#e59a20"/><path d="M924 248V154l23-23V88" stroke="#e59a20"/><path d="M956 248V178l27-22V108" stroke="#e59a20"/><path d="M990 248V200l36-26v-42" stroke="#e59a20"/><path d="M1024 248V220l38-21v-44" stroke="#e59a20"/><path d="M714 102h30l13 8h28" stroke="#36bfff" stroke-opacity=".55"/><path d="M750 132h28l14 9h31" stroke="#36bfff" stroke-opacity=".55"/><path d="M1010 126h-26l-14-9h-34" stroke="#e59a20" stroke-opacity=".55"/><path d="M1042 156h-23l-20 12h-39" stroke="#e59a20" stroke-opacity=".55"/></g>
<!-- execution radial fabric and bottom telemetry backplane -->
<g stroke-width="1" opacity=".82"><path d="M696 638v46l-32 32v72" stroke="#36bfff"/><path d="M724 638v60l-23 27v82" stroke="#36bfff"/><path d="M752 638v75l-14 18v92" stroke="#36bfff"/><path d="M780 638v92l-7 10v98" stroke="#36bfff"/><path d="M808 638v103l-3 6v101" stroke="#36bfff"/>
<path d="M864 638v94l12 17v90" stroke="#e59a20"/><path d="M892 638v78l19 23v94" stroke="#e59a20"/><path d="M922 638v64l28 28v84" stroke="#e59a20"/><path d="M954 638v50l35 32v78" stroke="#e59a20"/><path d="M988 638v38l40 35v72" stroke="#e59a20"/>
<path d="M774 720l-50 50-91 27h-95l-30 18H334" stroke="#36bfff" stroke-opacity=".48"/><path d="M898 722l50 45 104 29h82l40 19h166" stroke="#e59a20" stroke-opacity=".49"/><path d="M650 806h-78l-24 18H431l-22 15H224" stroke="#23d8c8" stroke-opacity=".35"/><path d="M1038 814h64l31 13h105l29 22h181" stroke="#c16fff" stroke-opacity=".36"/></g>
<g fill="none" stroke="#55d8ff" stroke-opacity=".12"><ellipse cx="836" cy="452" rx="320" ry="270"/><ellipse cx="836" cy="452" rx="410" ry="338" stroke-dasharray="2 16"/><ellipse cx="836" cy="744" rx="126" ry="104" stroke="#36bfff" stroke-opacity=".11" stroke-dasharray="2 12"/></g>
</g>
<!-- explicit wide-spread luminous via network / dense page-wide node matrices -->
<g filter="url(#glow)" opacity=".86">
<g fill="#36bfff"><circle cx="96" cy="104" r="1.4"/><circle cx="148" cy="162" r="1.7"/><circle cx="202" cy="221" r="1.3"/><circle cx="258" cy="280" r="1.9"/><circle cx="316" cy="340" r="1.2"/><circle cx="374" cy="400" r="1.7"/><circle cx="432" cy="460" r="1.3"/><circle cx="490" cy="520" r="1.9"/><circle cx="548" cy="580" r="1.2"/><circle cx="604" cy="640" r="1.7"/><circle cx="658" cy="700" r="1.3"/><circle cx="712" cy="758" r="1.9"/><circle cx="120" cy="258" r="1.3"/><circle cx="184" cy="324" r="1.6"/><circle cx="250" cy="392" r="1.2"/><circle cx="318" cy="458" r="1.8"/><circle cx="386" cy="526" r="1.2"/><circle cx="454" cy="594" r="1.6"/></g>
<g fill="#e59a20"><circle cx="1572" cy="98" r="1.4"/><circle cx="1518" cy="156" r="1.7"/><circle cx="1464" cy="220" r="1.3"/><circle cx="1408" cy="284" r="1.9"/><circle cx="1350" cy="348" r="1.2"/><circle cx="1292" cy="412" r="1.7"/><circle cx="1234" cy="476" r="1.3"/><circle cx="1176" cy="540" r="1.9"/><circle cx="1118" cy="604" r="1.2"/><circle cx="1062" cy="670" r="1.7"/><circle cx="1010" cy="734" r="1.3"/><circle cx="1540" cy="274" r="1.3"/><circle cx="1478" cy="338" r="1.6"/><circle cx="1412" cy="404" r="1.2"/><circle cx="1344" cy="470" r="1.8"/><circle cx="1276" cy="536" r="1.2"/><circle cx="1208" cy="602" r="1.6"/></g>
<g fill="#23d8c8"><circle cx="474" cy="142" r="1.3"/><circle cx="520" cy="204" r="1.6"/><circle cx="566" cy="266" r="1.3"/><circle cx="612" cy="328" r="1.8"/><circle cx="480" cy="418" r="1.5"/><circle cx="532" cy="484" r="1.3"/><circle cx="584" cy="550" r="1.8"/><circle cx="636" cy="616" r="1.4"/></g>
<g fill="#c16fff"><circle cx="1192" cy="146" r="1.3"/><circle cx="1148" cy="214" r="1.6"/><circle cx="1104" cy="282" r="1.3"/><circle cx="1060" cy="350" r="1.8"/><circle cx="1198" cy="430" r="1.5"/><circle cx="1152" cy="500" r="1.3"/><circle cx="1106" cy="570" r="1.8"/><circle cx="1060" cy="640" r="1.4"/></g>
<!-- scattered crown hotspots, not circular ring clusters -->
<g fill="#8bddff"><circle cx="610" cy="96" r="1.6"/><circle cx="660" cy="122" r="2.1"/><circle cx="708" cy="84" r="1.4"/><circle cx="760" cy="130" r="2.2"/><circle cx="806" cy="96" r="1.5"/></g>
<g fill="#ffc65c"><circle cx="1084" cy="88" r="1.5"/><circle cx="1038" cy="128" r="2.1"/><circle cx="992" cy="98" r="1.4"/><circle cx="946" cy="146" r="2.0"/><circle cx="906" cy="108" r="1.6"/></g>
<!-- pin landing nodes -->
<g fill="#e0f8ff"><circle cx="642" cy="260" r="1.8"/><circle cx="642" cy="292" r="1.8"/><circle cx="642" cy="324" r="1.8"/><circle cx="642" cy="356" r="1.8"/><circle cx="642" cy="388" r="1.8"/><circle cx="642" cy="420" r="1.8"/><circle cx="642" cy="452" r="1.8"/><circle cx="642" cy="484" r="1.8"/><circle cx="642" cy="516" r="1.8"/><circle cx="642" cy="548" r="1.8"/><circle cx="642" cy="580" r="1.8"/><circle cx="642" cy="612" r="1.8"/></g>
<g fill="#fff0bf"><circle cx="1030" cy="260" r="1.8"/><circle cx="1030" cy="292" r="1.8"/><circle cx="1030" cy="324" r="1.8"/><circle cx="1030" cy="356" r="1.8"/><circle cx="1030" cy="388" r="1.8"/><circle cx="1030" cy="420" r="1.8"/><circle cx="1030" cy="452" r="1.8"/><circle cx="1030" cy="484" r="1.8"/><circle cx="1030" cy="516" r="1.8"/><circle cx="1030" cy="548" r="1.8"/><circle cx="1030" cy="580" r="1.8"/><circle cx="1030" cy="612" r="1.8"/></g>
</g>
</svg>