<svg xmlns="http://www.w3.org/2000/svg" viewBox="0 0 1672 941" role="img" aria-label="Maestro authored PCB reference fabric v9 flowing terminals">
<defs>
  <pattern id="grid" width="18" height="18" patternUnits="userSpaceOnUse"><path d="M18 0H0V18" fill="none" stroke="#2a638d" stroke-opacity=".09" stroke-width=".42"/><circle cx="2" cy="2" r=".72" fill="#4aa5d7" fill-opacity=".12"/></pattern>
  <pattern id="dotsC" width="18" height="18" patternUnits="userSpaceOnUse"><circle cx="3" cy="3" r=".92" fill="#36bfff" fill-opacity=".42"/><circle cx="13" cy="10" r=".58" fill="#23d8c8" fill-opacity=".28"/></pattern>
  <pattern id="dotsA" width="19" height="18" patternUnits="userSpaceOnUse"><circle cx="4" cy="3" r=".9" fill="#e59a20" fill-opacity=".40"/><circle cx="14" cy="11" r=".56" fill="#ffc65c" fill-opacity=".25"/></pattern>
  <pattern id="dotsV" width="22" height="20" patternUnits="userSpaceOnUse"><circle cx="5" cy="4" r=".78" fill="#c16fff" fill-opacity=".31"/><circle cx="16" cy="13" r=".52" fill="#36bfff" fill-opacity=".21"/></pattern>
  <filter id="glow"><feGaussianBlur stdDeviation="1.55" result="b"/><feMerge><feMergeNode in="b"/><feMergeNode in="SourceGraphic"/></feMerge></filter>
  <filter id="glowC"><feGaussianBlur stdDeviation="1.9" result="b"/><feMerge><feMergeNode in="b"/><feMergeNode in="SourceGraphic"/></feMerge></filter>
  <filter id="glowA"><feGaussianBlur stdDeviation="1.9" result="b"/><feMerge><feMergeNode in="b"/><feMergeNode in="SourceGraphic"/></feMerge></filter>
  <filter id="terminalGlow"><feGaussianBlur stdDeviation="2.6" result="b"/><feMerge><feMergeNode in="b"/><feMergeNode in="SourceGraphic"/></feMerge></filter>
  <radialGradient id="halo" cx="50%" cy="47%" r="50%"><stop offset="0" stop-color="#0d74b2" stop-opacity=".19"/><stop offset=".5" stop-color="#07335d" stop-opacity=".07"/><stop offset="1" stop-color="#020712" stop-opacity="0"/></radialGradient>
</defs>
<rect width="1672" height="941" fill="url(#grid)" opacity=".9"/>
<ellipse cx="836" cy="452" rx="570" ry="412" fill="url(#halo)"/>
<rect x="20" y="58" width="575" height="720" fill="url(#dotsC)" opacity=".23"/>
<rect x="1078" y="54" width="575" height="724" fill="url(#dotsA)" opacity=".22"/>
<rect x="492" y="58" width="690" height="704" fill="url(#dotsC)" opacity=".08"/>
<rect x="350" y="590" width="972" height="278" fill="url(#dotsV)" opacity=".12"/>
<g fill="none" stroke-linecap="round" stroke-linejoin="round">
<!-- sculpted module frame rails -->
<g stroke-width=".92">
<path d="M69 82H362l30 18h19l17 18v94l-18 18h-20l-28 18H69l-18-18V100z" stroke="#36bfff" stroke-opacity=".78"/><path d="M78 90H355l28 17h18l15 15v86l-15 15h-18l-27 17H78l-14-14V104z" stroke="#36bfff" stroke-opacity=".26"/>
<path d="M69 259H362l30 18h19l17 18v94l-18 18h-20l-28 18H69l-18-18V277z" stroke="#23d8c8" stroke-opacity=".72"/><path d="M78 267H355l28 17h18l15 15v86l-15 15h-18l-27 17H78l-14-14V281z" stroke="#23d8c8" stroke-opacity=".24"/>
<path d="M69 438H362l30 18h19l17 18v94l-18 18h-20l-28 18H69l-18-18V456z" stroke="#a7d67b" stroke-opacity=".68"/><path d="M78 446H355l28 17h18l15 15v86l-15 15h-18l-27 17H78l-14-14V460z" stroke="#a7d67b" stroke-opacity=".22"/>
<path d="M69 617H362l30 18h19l17 18v94l-18 18h-20l-28 18H69l-18-18V635z" stroke="#c16fff" stroke-opacity=".76"/><path d="M78 625H355l28 17h18l15 15v86l-15 15h-18l-27 17H78l-14-14V639z" stroke="#c16fff" stroke-opacity=".25"/>
<path d="M1603 82H1322l-24 13h-28l-21 23v93l14 20h29l30 17h281l18-18V100z" stroke="#e59a20" stroke-opacity=".80"/><path d="M1594 91h-267l-24 12h-26l-16 19v84l18 17h18l31 16h266l14-14V104z" stroke="#e59a20" stroke-opacity=".27"/>
<path d="M1603 259H1315l-34 14h-16l-22 25v87l21 21h23l28 19h288l18-18V277z" stroke="#e59a20" stroke-opacity=".76"/><path d="M1594 267h-270l-31 17h-15l-18 14v86l16 17h23l26 16h269l14-14V281z" stroke="#e59a20" stroke-opacity=".24"/>
<path d="M1603 438H1328l-20 12h-37l-27 22v93l17 23h27l35 16h280l18-18V456z" stroke="#23d8c8" stroke-opacity=".74"/><path d="M1594 446h-261l-23 13h-28l-19 16v86l14 18h26l31 17h260l14-14V460z" stroke="#23d8c8" stroke-opacity=".24"/>
<path d="M1603 617H1305l-25 17h-21l-16 19v94l18 18h21l31 18h290l18-18V635z" stroke="#c16fff" stroke-opacity=".78"/><path d="M1594 625h-276l-26 16h-20l-12 16v84l17 17h20l28 17h269l14-14V639z" stroke="#c16fff" stroke-opacity=".26"/>
<!-- segmented rail accents moved onto perimeter to preserve path count without crowding center -->
<path d="M90 101h92" stroke="#36bfff" stroke-opacity=".50"/><path d="M222 101h88" stroke="#36bfff" stroke-opacity=".24"/><path d="M95 228h75" stroke="#36bfff" stroke-opacity=".34"/><path d="M218 228h104" stroke="#36bfff" stroke-opacity=".44"/>
<path d="M90 278h98" stroke="#23d8c8" stroke-opacity=".48"/><path d="M230 278h74" stroke="#23d8c8" stroke-opacity=".22"/><path d="M97 405h72" stroke="#23d8c8" stroke-opacity=".30"/><path d="M220 405h102" stroke="#23d8c8" stroke-opacity=".43"/>
<path d="M90 457h88" stroke="#a7d67b" stroke-opacity=".44"/><path d="M223 457h91" stroke="#a7d67b" stroke-opacity=".22"/><path d="M96 584h80" stroke="#a7d67b" stroke-opacity=".31"/><path d="M216 584h108" stroke="#a7d67b" stroke-opacity=".42"/>
<path d="M91 636h96" stroke="#c16fff" stroke-opacity=".48"/><path d="M231 636h79" stroke="#c16fff" stroke-opacity=".24"/><path d="M98 763h72" stroke="#c16fff" stroke-opacity=".32"/><path d="M219 763h104" stroke="#c16fff" stroke-opacity=".44"/>
<path d="M1483 101h92" stroke="#e59a20" stroke-opacity=".52"/><path d="M1357 101h82" stroke="#e59a20" stroke-opacity=".24"/><path d="M1494 228h76" stroke="#e59a20" stroke-opacity=".34"/><path d="M1350 228h103" stroke="#e59a20" stroke-opacity=".46"/>
<path d="M1480 278h96" stroke="#e59a20" stroke-opacity=".50"/><path d="M1354 278h80" stroke="#e59a20" stroke-opacity=".23"/><path d="M1492 405h78" stroke="#e59a20" stroke-opacity=".33"/><path d="M1347 405h101" stroke="#e59a20" stroke-opacity=".45"/>
<path d="M1482 457h92" stroke="#23d8c8" stroke-opacity=".49"/><path d="M1356 457h78" stroke="#23d8c8" stroke-opacity=".23"/><path d="M1495 584h74" stroke="#23d8c8" stroke-opacity=".31"/><path d="M1349 584h100" stroke="#23d8c8" stroke-opacity=".44"/>
<path d="M1482 636h94" stroke="#c16fff" stroke-opacity=".50"/><path d="M1354 636h82" stroke="#c16fff" stroke-opacity=".24"/><path d="M1492 763h78" stroke="#c16fff" stroke-opacity=".32"/><path d="M1348 763h102" stroke="#c16fff" stroke-opacity=".45"/>
</g>
<!-- balanced density envelope / visual breathing corridors -->
<!-- long ambient branches that intentionally do not terminate at cards -->
<g stroke="#36bfff" stroke-opacity=".16" stroke-width=".62">
<path d="M8 98h126l26 16h170l28-18h165l25 14h77"/><path d="M8 178h103l31 18h190l24-15h171l29 17h80"/><path d="M8 264h122l22 14h176l31-21h158l32 18h86"/><path d="M8 352h88l36 20h196l24-17h170l31 19h82"/><path d="M8 446h125l21 13h164l37-24h158l33 20h91"/><path d="M8 548h93l33 20h190l26-18h177l30 19h77"/><path d="M8 650h124l21 14h169l34-22h156l35 20h89"/><path d="M8 734h91l37 21h185l28-16h169l34 18h81"/>
</g>
<!-- asymmetric right-side ambient fabric: intentionally not mirrored -->
<g stroke="#e59a20" stroke-opacity=".17" stroke-width=".64">
<path d="M1664 108h-94l-33 18h-171l-20-14h-160l-31 21h-117"/><path d="M1664 196h-78l-39 23h-198l-23-16h-151l-42 25h-95"/><path d="M1664 288h-88l-36 20h-185l-26-17h-145l-38 24h-111"/><path d="M1664 382h-111l-26 15h-169l-39-25h-149l-36 22h-99"/><path d="M1664 480h-120l-20 13h-176l-35-21h-154l-41 27h-84"/><path d="M1664 582h-108l-28 16h-160l-42-24h-165l-26 19h-101"/><path d="M1664 684h-96l-32 18h-182l-28-16h-151l-40 24h-99"/><path d="M1664 748h-80l-38 21h-196l-24-14h-158l-34 19h-98"/>
</g>
<!-- central-origin surface merge network -->
<g stroke="#36bfff" stroke-opacity=".91" stroke-width="1.16" filter="url(#glowC)">
<path d="M642 300H604l-22-17h-51l-26 18h-57l-30-21h-42"/><path d="M642 354H612l-27 20h-56l-24-18h-52l-29 20h-43"/><path d="M642 414H601l-20 15h-58l-22-18h-51l-28 19h-40"/><path d="M642 480H610l-25 19h-55l-24-17h-54l-28 19h-42"/><path d="M642 548H600l-19 14h-57l-22-17h-50l-28 20h-42"/>
</g>
<!-- asymmetric right merge fabric -->
<g stroke="#e59a20" stroke-opacity=".93" stroke-width="1.18" filter="url(#glowA)">
<path d="M1030 296h29l31-21h46l21 15h58l25-21h45"/><path d="M1030 356h39l20-14h62l27 22h41l31-18h35"/><path d="M1030 422h27l28 17h60l20-22h48l29 20h43"/><path d="M1030 490h43l17-12h51l30 23h55l21-17h38"/><path d="M1030 556h35l22 16h45l35-22h60l19 23h39"/>
</g>
<!-- organic micro-topology islands -->
<g stroke="#36bfff" stroke-opacity=".37" stroke-width=".76"><path d="M430 142h42l18 10h38"/><path d="M420 230h38l21 11h50"/><path d="M432 332h47l19 12h46"/><path d="M424 572h43l22 10h51"/></g>
<g stroke="#e59a20" stroke-opacity=".39" stroke-width=".76"><path d="M1248 148h-38l-22 11h-42"/><path d="M1255 238h-45l-20 12h-49"/><path d="M1242 392h-42l-24 13h-47"/><path d="M1250 580h-40l-25-11h-52"/></g>
<g stroke="#23d8c8" stroke-opacity=".83" stroke-width="1.04" filter="url(#glow)"><path d="M430 348h70l18-10h54l20 8h50"/><path d="M1246 360h-58l-25 14h-52l-19-12h-62"/><path d="M430 494h70l18-10h54l20 8h50"/><path d="M1240 500h-63l-20 15h-49l-27-18h-51"/></g>
<g stroke="#c16fff" stroke-opacity=".86" stroke-width="1.05" filter="url(#glow)"><path d="M430 642h68l18-10h54l20 8h52"/><path d="M1248 646h-62l-22 17h-51l-28-13h-55"/><path d="M430 678h68l18-10h54l20 8h52"/><path d="M1236 684h-54l-25-14h-42l-29 18h-56"/></g>
<!-- reference-flowing secondary branches with terminal dead-end nodes -->
<g stroke="#36bfff" stroke-opacity=".58" stroke-width=".78" filter="url(#glow)">
<path d="M642 326h-34l-19-13h-38l-17 12h-42l-19-10h-38l-21 16h-28"/>
<path d="M642 386h-29l-15 11h-44l-24-15h-46l-16 12h-31l-18 18h-25"/>
<path d="M642 448h-37l-17-12h-34l-20 16h-49l-17-10h-33l-20 14h-31"/>
<path d="M642 516h-31l-20-14h-39l-15 13h-44l-22-17h-35l-18 13h-29"/>
</g>
<g stroke="#e59a20" stroke-opacity=".61" stroke-width=".80" filter="url(#glow)">
<path d="M1030 320h32l17-11h37l21 14h45l18-12h38l20 16h29"/>
<path d="M1030 388h27l20 15h43l16-13h49l23 17h34l16-12h31"/>
<path d="M1030 456h35l16-12h41l20 17h38l18-14h42l22 16h27"/>
<path d="M1030 526h30l22 15h36l17-13h46l19 16h37l20-14h31"/>
</g>
<!-- explicit dead-end flow branches: tapered spread, no card termination -->
<g stroke="#23d8c8" stroke-opacity=".52" stroke-width=".72" filter="url(#glow)">
<path d="M612 340l-23-18h-31l-18-15h-34l-20-17h-35"/>
<path d="M602 470l-18 16h-32l-19 14h-36l-21 18h-42"/>
<path d="M1062 474l22-17h31l18-15h36l19-18h43"/>
</g>
<g stroke="#c16fff" stroke-opacity=".55" stroke-width=".72" filter="url(#glow)">
<path d="M602 574l-22 17h-36l-18 15h-39l-24 20h-44"/>
<path d="M1064 578l24 18h35l20 15h40l22 19h45"/>
</g>
<!-- core rim integration: nested processor rails and pin landing geometry -->
<g filter="url(#glow)" stroke-width=".92"><path d="M627 246h418" stroke="#8bddff" stroke-opacity=".44"/><path d="M627 640h418" stroke="#ffc65c" stroke-opacity=".32"/><path d="M640 233v34" stroke="#36bfff" stroke-opacity=".74"/><path d="M1032 232v34" stroke="#e59a20" stroke-opacity=".78"/><path d="M640 620v34" stroke="#c16fff" stroke-opacity=".62"/><path d="M1032 620v34" stroke="#23d8c8" stroke-opacity=".62"/></g>
<!-- crown breakout with scattered hotspots; top rings deliberately removed -->
<g stroke-width="1.05" fill="none" filter="url(#glow)">
<path d="M704 248V190l-18-18V142l-14-14V102" stroke="#36bfff" stroke-opacity=".88"/><path d="M734 248V170l-14-14V124l-18-18V76" stroke="#36bfff" stroke-opacity=".84"/><path d="M768 248V150l-18-18V100l-12-12V60" stroke="#36bfff" stroke-opacity=".91"/><path d="M802 248V130l-14-14V88l-16-16V46" stroke="#36bfff" stroke-opacity=".87"/><path d="M834 248V118l-12-12V82" stroke="#23d8c8" stroke-opacity=".80"/>
<path d="M868 248V122l14-14V84" stroke="#e59a20" stroke-opacity=".84"/><path d="M902 248V132l16-16V88l14-14V50" stroke="#e59a20" stroke-opacity=".92"/><path d="M936 248V150l18-18V104l16-16V66" stroke="#e59a20" stroke-opacity=".88"/><path d="M970 248V170l16-16V126l18-18V84" stroke="#e59a20" stroke-opacity=".84"/><path d="M1000 248V192l20-20V146l16-16V108" stroke="#e59a20" stroke-opacity=".79"/>
<!-- crown side-slip dead ends -->
<path d="M750 100h-24l-14-12h-22" stroke="#36bfff" stroke-opacity=".55" stroke-width=".72"/>
<path d="M788 88h27l12-12h20" stroke="#23d8c8" stroke-opacity=".50" stroke-width=".70"/>
<path d="M918 90h-22l-14-12h-19" stroke="#e59a20" stroke-opacity=".54" stroke-width=".72"/>
<path d="M954 108h26l14-12h23" stroke="#ffc65c" stroke-opacity=".49" stroke-width=".70"/>
</g>
<!-- execution radial fabric and bottom telemetry backplane -->
<g stroke-width=".88" fill="none">
<path d="M742 638v70l-18 18v26l-18 18v42" stroke="#36bfff" stroke-opacity=".78"/><path d="M770 638v84l-16 16v30l-20 20v48" stroke="#36bfff" stroke-opacity=".70"/><path d="M802 638v98l-14 14v30l-18 18v46" stroke="#23d8c8" stroke-opacity=".64"/><path d="M836 638v126" stroke="#36bfff" stroke-opacity=".88"/><path d="M870 638v98l14 14v28l18 18v48" stroke="#e59a20" stroke-opacity=".74"/><path d="M902 638v84l16 16v28l20 20v50" stroke="#e59a20" stroke-opacity=".69"/><path d="M934 638v70l18 18v26l18 18v44" stroke="#c16fff" stroke-opacity=".70"/><path d="M966 638v60l20 20v24l20 20v38" stroke="#c16fff" stroke-opacity=".61"/>
<!-- lower dead-end fanout -->
<path d="M782 710l-26 18h-32l-18 15h-30" stroke="#36bfff" stroke-opacity=".48" stroke-width=".70"/>
<path d="M806 752l-24 19h-34l-20 16h-35" stroke="#23d8c8" stroke-opacity=".46" stroke-width=".68"/>
<path d="M890 714l27 19h33l18 15h31" stroke="#e59a20" stroke-opacity=".50" stroke-width=".70"/>
<path d="M914 754l25 18h36l20 17h34" stroke="#c16fff" stroke-opacity=".48" stroke-width=".68"/>
<path d="M68 828h385l28-18h223" stroke="#36bfff" stroke-opacity=".20"/><path d="M1604 828h-378l-31-17h-222" stroke="#e59a20" stroke-opacity=".20"/><path d="M350 856h284l22-14h132" stroke="#23d8c8" stroke-opacity=".18"/><path d="M1324 856h-278l-24-14H890" stroke="#c16fff" stroke-opacity=".18"/><path d="M80 884h522" stroke="#36bfff" stroke-opacity=".12"/><path d="M1592 884h-512" stroke="#e59a20" stroke-opacity=".12"/>
</g>
</g>
<!-- explicit wide-spread luminous via network / dense page-wide node matrices -->
<g filter="url(#glow)" opacity=".88">
<circle cx="110" cy="118" r="1.8" fill="#36bfff"/><circle cx="162" cy="206" r="1.6" fill="#23d8c8"/><circle cx="214" cy="318" r="1.7" fill="#36bfff"/><circle cx="275" cy="414" r="1.5" fill="#23d8c8"/><circle cx="338" cy="522" r="1.8" fill="#36bfff"/><circle cx="404" cy="612" r="1.6" fill="#23d8c8"/><circle cx="468" cy="702" r="1.7" fill="#36bfff"/><circle cx="532" cy="164" r="1.9" fill="#36bfff"/><circle cx="566" cy="274" r="1.6" fill="#23d8c8"/><circle cx="588" cy="386" r="1.8" fill="#36bfff"/><circle cx="550" cy="518" r="1.7" fill="#23d8c8"/><circle cx="598" cy="650" r="1.8" fill="#36bfff"/><circle cx="626" cy="760" r="1.6" fill="#23d8c8"/><circle cx="356" cy="744" r="1.5" fill="#36bfff"/><circle cx="236" cy="676" r="1.7" fill="#23d8c8"/>
<circle cx="1560" cy="118" r="1.8" fill="#e59a20"/><circle cx="1508" cy="206" r="1.6" fill="#ffc65c"/><circle cx="1456" cy="318" r="1.7" fill="#e59a20"/><circle cx="1395" cy="414" r="1.5" fill="#ffc65c"/><circle cx="1332" cy="522" r="1.8" fill="#e59a20"/><circle cx="1266" cy="612" r="1.6" fill="#ffc65c"/><circle cx="1202" cy="702" r="1.7" fill="#e59a20"/><circle cx="1140" cy="164" r="1.9" fill="#e59a20"/><circle cx="1106" cy="274" r="1.6" fill="#ffc65c"/><circle cx="1084" cy="386" r="1.8" fill="#e59a20"/><circle cx="1122" cy="518" r="1.7" fill="#ffc65c"/><circle cx="1074" cy="650" r="1.8" fill="#e59a20"/><circle cx="1046" cy="760" r="1.6" fill="#ffc65c"/><circle cx="1316" cy="744" r="1.5" fill="#e59a20"/><circle cx="1436" cy="676" r="1.7" fill="#ffc65c"/>
<circle cx="666" cy="180" r="1.6" fill="#36bfff"/><circle cx="700" cy="120" r="1.8" fill="#36bfff"/><circle cx="746" cy="92" r="1.5" fill="#23d8c8"/><circle cx="792" cy="74" r="1.7" fill="#36bfff"/><circle cx="836" cy="96" r="1.5" fill="#23d8c8"/><circle cx="878" cy="80" r="1.7" fill="#e59a20"/><circle cx="924" cy="96" r="1.5" fill="#ffc65c"/><circle cx="970" cy="120" r="1.8" fill="#e59a20"/><circle cx="1006" cy="176" r="1.6" fill="#ffc65c"/><circle cx="690" cy="700" r="1.7" fill="#36bfff"/><circle cx="730" cy="744" r="1.5" fill="#23d8c8"/><circle cx="780" cy="790" r="1.8" fill="#36bfff"/><circle cx="836" cy="818" r="1.7" fill="#c16fff"/><circle cx="892" cy="790" r="1.8" fill="#e59a20"/><circle cx="942" cy="744" r="1.5" fill="#c16fff"/>
<circle cx="448" cy="590" r="1.7" fill="#a7d67b"/><circle cx="500" cy="548" r="1.5" fill="#a7d67b"/><circle cx="1170" cy="548" r="1.6" fill="#23d8c8"/><circle cx="1218" cy="590" r="1.7" fill="#23d8c8"/><circle cx="474" cy="690" r="1.8" fill="#c16fff"/><circle cx="540" cy="718" r="1.5" fill="#c16fff"/><circle cx="1132" cy="718" r="1.5" fill="#c16fff"/><circle cx="1198" cy="690" r="1.8" fill="#c16fff"/><circle cx="642" cy="330" r="1.8" fill="#36bfff"/><circle cx="642" cy="484" r="1.8" fill="#a7d67b"/><circle cx="1030" cy="330" r="1.8" fill="#e59a20"/><circle cx="1030" cy="496" r="1.8" fill="#23d8c8"/><circle cx="642" cy="646" r="1.8" fill="#c16fff"/><circle cx="1030" cy="650" r="1.8" fill="#c16fff"/>
</g>
<!-- pin landing nodes -->
<g filter="url(#glow)"><circle cx="642" cy="300" r="2.4" fill="#36bfff"/><circle cx="642" cy="354" r="2.2" fill="#23d8c8"/><circle cx="642" cy="480" r="2.2" fill="#a7d67b"/><circle cx="642" cy="548" r="2.2" fill="#c16fff"/><circle cx="1030" cy="296" r="2.4" fill="#e59a20"/><circle cx="1030" cy="356" r="2.2" fill="#e59a20"/><circle cx="1030" cy="490" r="2.2" fill="#23d8c8"/><circle cx="1030" cy="556" r="2.2" fill="#c16fff"/></g>
<!-- terminal beacons: upper crown + side dead ends + lower execution dead ends -->
<g id="terminal-beacons" filter="url(#terminalGlow)">
<!-- upper terminal beacons -->
<circle cx="672" cy="102" r="2.7" fill="#36bfff"/><circle cx="702" cy="76" r="2.4" fill="#36bfff"/><circle cx="738" cy="60" r="2.7" fill="#23d8c8"/><circle cx="772" cy="46" r="2.8" fill="#36bfff"/><circle cx="822" cy="82" r="2.4" fill="#23d8c8"/><circle cx="882" cy="84" r="2.4" fill="#e59a20"/><circle cx="932" cy="50" r="2.8" fill="#e59a20"/><circle cx="970" cy="66" r="2.5" fill="#ffc65c"/><circle cx="1004" cy="84" r="2.5" fill="#e59a20"/><circle cx="1036" cy="108" r="2.4" fill="#ffc65c"/>
<!-- left dead-end terminals -->
<circle cx="386" cy="331" r="2.4" fill="#36bfff"/><circle cx="394" cy="412" r="2.2" fill="#36bfff"/><circle cx="384" cy="456" r="2.3" fill="#36bfff"/><circle cx="389" cy="511" r="2.2" fill="#23d8c8"/><circle cx="451" cy="290" r="2.0" fill="#23d8c8"/><circle cx="434" cy="518" r="2.1" fill="#23d8c8"/><circle cx="419" cy="626" r="2.3" fill="#c16fff"/>
<!-- right dead-end terminals -->
<circle cx="1287" cy="327" r="2.4" fill="#e59a20"/><circle cx="1289" cy="395" r="2.3" fill="#e59a20"/><circle cx="1289" cy="463" r="2.4" fill="#e59a20"/><circle cx="1288" cy="530" r="2.2" fill="#e59a20"/><circle cx="1231" cy="424" r="2.1" fill="#23d8c8"/><circle cx="1250" cy="630" r="2.3" fill="#c16fff"/>
<!-- lower terminal beacons -->
<circle cx="676" cy="743" r="2.4" fill="#36bfff"/><circle cx="693" cy="787" r="2.3" fill="#23d8c8"/><circle cx="999" cy="748" r="2.4" fill="#e59a20"/><circle cx="1029" cy="789" r="2.3" fill="#c16fff"/><circle cx="706" cy="812" r="2.0" fill="#36bfff"/><circle cx="1006" cy="800" r="2.0" fill="#c16fff"/>
</g>
<!-- scattered passive micro-vias remain subordinate to route terminal hierarchy -->
<g filter="url(#glow)" opacity=".72"><circle cx="680" cy="110" r="1.5" fill="#36bfff"/><circle cx="714" cy="82" r="1.4" fill="#23d8c8"/><circle cx="750" cy="68" r="1.5" fill="#36bfff"/><circle cx="786" cy="52" r="1.4" fill="#36bfff"/><circle cx="834" cy="108" r="1.4" fill="#23d8c8"/><circle cx="868" cy="112" r="1.4" fill="#e59a20"/><circle cx="920" cy="56" r="1.5" fill="#e59a20"/><circle cx="956" cy="72" r="1.4" fill="#ffc65c"/><circle cx="994" cy="92" r="1.4" fill="#e59a20"/><circle cx="1024" cy="120" r="1.4" fill="#ffc65c"/></g>
</svg>
